# File created by Blade
# Date/Time:  Wed Sep 24 19:42:34 2014
# Frame Rate: 120.000 fps
#------------------------------------------------------
:FULLY-SPECIFIED
:DEGREES
909
root -4.894146 32.963122 -3.120846 8.511337 8.667164 -2.289965
Spine -15.511574 15.855028 -5.506971
Head 10.393039 -17.739899 11.905192
LeftShoulder -8.976825 19.004295 10.586174
LeftArm 25.366319 35.254094 -67.543712
LeftForeArm -0.293159 0.000000 23.663529
LeftHand -23.864066 -0.000000 -7.317117
LeftHandThumb1 -26.253704 0.000000 33.147579
RightShoulder -21.218980 30.807734 -48.499048
RightArm 73.700601 43.641155 87.998852
RightForeArm 37.537133 -0.000000 115.105215
RightHand 4.422728 -0.000000 3.743594
RightHandThumb1 -24.326973 -0.000000 -32.862282
LeftUpLeg -3.778918 1.259650 7.149603
LeftLeg -2.024154 -0.000000 0.000000
LeftFoot -7.614660 2.786120 -18.683381
LeftToeBase 9.987995 -0.000000 -0.000000
RightUpLeg -3.601297 -12.083057 1.615248
RightLeg 1.193555 -0.000000 -0.000000
RightFoot -6.368962 -6.201918 -14.673245
RightToeBase 0.749386 -0.000000 -0.000000
910
root -4.894644 32.962289 -3.118110 8.514598 8.720134 -2.254028
Spine -15.467276 15.803842 -5.505261
Head 10.632222 -17.335584 12.094047
LeftShoulder -9.138381 19.064510 10.506738
LeftArm 25.487271 35.290229 -67.424019
LeftForeArm -0.331270 0.000000 23.604581
LeftHand -23.793654 -0.000000 -7.205784
LeftHandThumb1 -26.253704 0.000000 33.147579
RightShoulder -21.371419 30.689258 -48.683301
RightArm 73.904221 43.380441 87.179546
RightForeArm 36.926428 0.000000 113.942221
RightHand 4.243522 0.000000 3.739799
RightHandThumb1 -24.326973 -0.000000 -32.862282
LeftUpLeg -3.775553 1.226752 7.120367
LeftLeg -2.044682 -0.000000 0.000000
LeftFoot -7.581393 2.788546 -18.655626
LeftToeBase 9.997141 -0.000000 -0.000000
RightUpLeg -3.603450 -12.152388 1.589695
RightLeg 1.223050 -0.000000 -0.000000
RightFoot -6.411894 -6.222603 -14.736054
RightToeBase 0.753644 -0.000000 -0.000000
911
root -4.895987 32.962808 -3.115007 8.520333 8.760420 -2.232677
Spine -15.438261 15.764322 -5.499819
Head 10.977602 -16.866519 12.309089
LeftShoulder -9.279012 19.092816 10.473112
LeftArm 25.540699 35.331819 -67.402657
LeftForeArm -0.400081 -0.000000 23.518572
LeftHand -23.891679 -0.000000 -7.028162
LeftHandThumb1 -26.253704 0.000000 33.147579
RightShoulder -21.532505 30.623228 -48.884679
RightArm 74.012134 43.160694 86.289205
RightForeArm 36.646794 -0.000000 112.837893
RightHand 3.967247 -0.000000 3.891303
RightHandThumb1 -24.326973 -0.000000 -32.862282
LeftUpLeg -3.779966 1.226390 7.106354
LeftLeg -2.050211 -0.000000 0.000000
LeftFoot -7.547656 2.745145 -18.661186
LeftToeBase 9.983444 -0.000000 -0.000000
RightUpLeg -3.598486 -12.171408 1.576962
RightLeg 1.226460 -0.000000 -0.000000
RightFoot -6.417082 -6.235966 -14.729675
RightToeBase 0.793206 -0.000000 -0.000000
912
root -4.901076 32.963979 -3.114483 8.533367 8.793164 -2.245085
Spine -15.419146 15.734556 -5.450739
Head 11.295751 -16.383052 12.532730
LeftShoulder -9.406768 19.118348 10.429402
LeftArm 25.576168 35.356788 -67.390865
LeftForeArm -0.398554 -0.000000 23.420836
LeftHand -23.943328 -0.000000 -7.019045
LeftHandThumb1 -26.253704 0.000000 33.147579
RightShoulder -21.651421 30.568465 -49.046007
RightArm 74.161049 42.941162 85.278982
RightForeArm 36.274537 -0.000000 111.733719
RightHand 3.679005 -0.000000 3.914729
RightHandThumb1 -24.326973 -0.000000 -32.862282
LeftUpLeg -3.803123 1.206764 7.131430
LeftLeg -2.049334 -0.000000 0.000000
LeftFoot -7.531225 2.732694 -18.719398
LeftToeBase 9.983649 -0.000000 -0.000000
RightUpLeg -3.587108 -12.102035 1.599563
RightLeg 1.176754 -0.000000 -0.000000
RightFoot -6.358634 -6.307434 -14.701909
RightToeBase 0.771443 -0.000000 -0.000000
